<svg xmlns="http://www.w3.org/2000/svg" xmlns:xlink="http://www.w3.org/1999/xlink" viewBox="0 0 280 250" preserveAspectRatio="xMidYMid" style="display: block; shape-rendering: auto; background: transparent;" width="280" height="250"><style type="text/css">
  .ld-text text {
    text-anchor: middle;
    dominant-baseline: middle;
    font-size: 81px;
    opacity: 0;
    user-select: none;
    pointer-events: none;
  }
</style>
<g style="transform-origin:140px 125px;transform:scale(1)" class="ld-text">
<g transform="translate(140,125)">
  <g transform="scale(1.0125) translate(0,0)"><g class="path" style="opacity: 1; transform-origin: -55.6px 18.67px; transform: matrix3d(1, 0, 0, 0, 0, 1, 0, 0, 0, 0, 1, 0, 0, 0, 0, 1); animation: 1s linear -0.44s infinite normal forwards running animate-db618utl2yp; transform-box: view-box;"><path d="M48.56 62.24L27.44 62.24L27.44 52.24L1.44 52.24L1.44 39.12L29.04-0L48.56-0L48.56 40.08L54.08 40.08L54.08 52.24L48.56 52.24L48.56 62.24 zM27.44 24.32L16.24 40.08L27.44 40.08L27.44 24.32" style="fill: rgb(217, 217, 217);" transform="translate(-83.360,-31.120)"></path></g><g class="path" style="opacity: 1; transform-origin: 1.44px 19.34px; transform: matrix3d(1, 0, 0, 0, 0, 1, 0, 0, 0, 0, 1, 0, 0, 0, 0, 1); animation: 1s linear -0.22s infinite normal forwards running animate-db618utl2yp; transform-box: view-box;"><path d="M84.80 63.36Q71.28 63.36 63.96 55.68Q56.64 48 56.64 31.12L56.64 31.12Q56.64 14.24 63.96 6.56Q71.28-1.12 84.80-1.12L84.80-1.12Q98.32-1.12 105.64 6.56Q112.96 14.24 112.96 31.12L112.96 31.12Q112.96 46.72 106.20 55.04Q99.44 63.36 84.80 63.36L84.80 63.36 zM84.80 49.12Q90.24 49.12 90.24 43.20L90.24 43.20L90.24 19.04Q90.24 13.12 84.80 13.12L84.80 13.12Q79.36 13.12 79.36 19.04L79.36 19.04L79.36 43.20Q79.36 49.12 84.80 49.12L84.80 49.12" style="fill: rgb(217, 217, 217);" transform="translate(-83.360,-31.120)"></path></g><g class="path" style="opacity: 1; transform-origin: 58.48px 18.67px; transform: matrix3d(1, 0, 0, 0, 0, 1, 0, 0, 0, 0, 1, 0, 0, 0, 0, 1); animation: 1s linear 0s infinite normal forwards running animate-db618utl2yp; transform-box: view-box;"><path d="M162.64 62.24L141.52 62.24L141.52 52.24L115.52 52.24L115.52 39.12L143.12-0L162.64-0L162.64 40.08L168.16 40.08L168.16 52.24L162.64 52.24L162.64 62.24 zM141.52 24.32L130.32 40.08L141.52 40.08L141.52 24.32" style="fill: rgb(217, 217, 217);" transform="translate(-83.360,-31.120)"></path></g></g><text dy="0.35em" fill="#d9d9d9" font-family="Alfa Slab One" font-size="81">404</text>
</g>
</g><style type="text/css">@keyframes animate-db618utl2yp { 0.00% {transform: translate(0.00px,0.00px) rotate(0.00deg) scale(1.00, 1.00) skew(0deg, 0.00deg) ;opacity: 1.00;}2.00% {animation-timing-function: cubic-bezier(0.20,0.39,0.50,0.97);transform: translate(0.00px,-1.08px) rotate(0.00deg) ;}36.00% {animation-timing-function: cubic-bezier(0.50,0.03,0.80,0.61);transform: translate(0.00px,-10.00px) rotate(0.00deg) ;}72.00% {transform: translate(0.00px,-0.12px) rotate(0.00deg) ;}74.00% {animation-timing-function: cubic-bezier(0.24,0.43,0.48,0.91);transform: translate(0.00px,0.00px) rotate(0.00deg) scale(1.00, 0.95) ;}86.00% {animation-timing-function: cubic-bezier(0.53,0.08,0.77,0.57);transform: translate(0.00px,0.00px) rotate(0.00deg) scale(1.00, 0.80) ;}100.00% {animation-timing-function: cubic-bezier(0.53,0.08,0.77,0.57);transform: translate(0.00px,0.00px) rotate(0.00deg) scale(1.00, 1.00) ;} }</style><!-- [ldio] generated by https://loading.io --></svg>